<mxfile host="65bd71144e">
    <diagram id="foyhW6rIAd-1MIi7OwMy" name="Arquitetura em Camadas">
        <mxGraphModel dx="1100" dy="792" grid="1" gridSize="10" guides="1" tooltips="1" connect="1" arrows="1" fold="1" page="1" pageScale="1" pageWidth="850" pageHeight="1100" math="0" shadow="0">
            <root>
                <mxCell id="0"/>
                <mxCell id="1" parent="0"/>
                <mxCell id="3" value="ecommerce-node-api (back-end)" style="verticalAlign=top;align=left;spacingTop=8;spacingLeft=2;spacingRight=12;shape=cube;size=10;direction=south;fontStyle=4;html=1;strokeWidth=2;" vertex="1" parent="1">
                    <mxGeometry x="40" y="180" width="400" height="430" as="geometry"/>
                </mxCell>
                <mxCell id="5" value="ecommerce-web-app (front-end)" style="verticalAlign=top;align=left;spacingTop=8;spacingLeft=2;spacingRight=12;shape=cube;size=10;direction=south;fontStyle=4;html=1;strokeWidth=2;" vertex="1" parent="1">
                    <mxGeometry x="40" y="20" width="400" height="130" as="geometry"/>
                </mxCell>
                <mxCell id="6" value="" style="shape=cylinder3;whiteSpace=wrap;html=1;boundedLbl=1;backgroundOutline=1;size=15;strokeWidth=2;" vertex="1" parent="1">
                    <mxGeometry x="155" y="680" width="195" height="160" as="geometry"/>
                </mxCell>
                <mxCell id="7" value="Database (Relacional)" style="text;strokeColor=none;fillColor=none;align=left;verticalAlign=middle;spacingLeft=4;spacingRight=4;overflow=hidden;points=[[0,0.5],[1,0.5]];portConstraint=eastwest;rotatable=0;whiteSpace=wrap;html=1;strokeWidth=2;" vertex="1" parent="1">
                    <mxGeometry x="175" y="750" width="130" height="30" as="geometry"/>
                </mxCell>
                <mxCell id="8" value="" style="rounded=1;whiteSpace=wrap;html=1;strokeWidth=2;fillColor=#FF6666;" vertex="1" parent="1">
                    <mxGeometry x="160" y="360" width="260" height="90" as="geometry"/>
                </mxCell>
                <mxCell id="9" value="&lt;font style=&quot;background-color: rgb(255, 102, 102);&quot; color=&quot;#000000&quot;&gt;Camada de Domínio&lt;/font&gt;" style="text;html=1;strokeColor=none;fillColor=none;align=center;verticalAlign=middle;whiteSpace=wrap;rounded=0;strokeWidth=2;" vertex="1" parent="1">
                    <mxGeometry x="135" y="360" width="170" height="30" as="geometry"/>
                </mxCell>
                <mxCell id="21" style="edgeStyle=none;html=1;entryX=0.75;entryY=0;entryDx=0;entryDy=0;fontColor=#000000;dashed=1;endArrow=classic;endFill=1;endSize=10;startSize=10;" edge="1" parent="1" source="11" target="9">
                    <mxGeometry relative="1" as="geometry"/>
                </mxCell>
                <mxCell id="11" value="" style="rounded=1;whiteSpace=wrap;html=1;strokeWidth=2;fillColor=#FFFF33;" vertex="1" parent="1">
                    <mxGeometry x="50" y="230" width="370" height="90" as="geometry"/>
                </mxCell>
                <mxCell id="22" style="edgeStyle=none;html=1;entryX=0.388;entryY=1;entryDx=0;entryDy=0;dashed=1;fontColor=#000000;endArrow=classic;endFill=1;endSize=10;startSize=10;entryPerimeter=0;" edge="1" parent="1" source="12" target="8">
                    <mxGeometry relative="1" as="geometry"/>
                </mxCell>
                <mxCell id="12" value="" style="rounded=1;whiteSpace=wrap;html=1;strokeWidth=2;fillColor=#66FF66;" vertex="1" parent="1">
                    <mxGeometry x="50" y="490" width="370" height="90" as="geometry"/>
                </mxCell>
                <mxCell id="13" value="&lt;span style=&quot;background-color: rgb(255, 255, 51);&quot;&gt;Camada de Aplicação&lt;/span&gt;" style="text;html=1;strokeColor=none;fillColor=none;align=center;verticalAlign=middle;whiteSpace=wrap;rounded=0;labelBackgroundColor=#FF6666;strokeWidth=2;fontColor=#000000;" vertex="1" parent="1">
                    <mxGeometry x="50" y="230" width="130" height="30" as="geometry"/>
                </mxCell>
                <mxCell id="25" style="edgeStyle=none;html=1;exitX=0.75;exitY=0;exitDx=0;exitDy=0;entryX=0.25;entryY=1;entryDx=0;entryDy=0;dashed=1;fontColor=#000000;endArrow=classic;endFill=1;startSize=10;endSize=10;" edge="1" parent="1" source="14" target="11">
                    <mxGeometry relative="1" as="geometry"/>
                </mxCell>
                <mxCell id="14" value="&lt;span style=&quot;background-color: rgb(102, 255, 102);&quot;&gt;Camada de infraestrutura&lt;/span&gt;" style="text;html=1;strokeColor=none;fillColor=none;align=center;verticalAlign=middle;whiteSpace=wrap;rounded=0;labelBackgroundColor=#FF6666;strokeWidth=2;fontColor=#000000;" vertex="1" parent="1">
                    <mxGeometry x="50" y="490" width="140" height="30" as="geometry"/>
                </mxCell>
                <mxCell id="18" value="" style="rounded=1;whiteSpace=wrap;html=1;strokeWidth=2;fillColor=#FF66B3;gradientColor=none;" vertex="1" parent="1">
                    <mxGeometry x="60" y="65" width="350" height="60" as="geometry"/>
                </mxCell>
                <mxCell id="19" value="&lt;span style=&quot;background-color: rgb(255, 102, 179);&quot;&gt;Camada de Aplicação&lt;/span&gt;" style="text;html=1;strokeColor=none;fillColor=none;align=center;verticalAlign=middle;whiteSpace=wrap;rounded=0;labelBackgroundColor=#FF6666;strokeWidth=2;fontColor=#000000;" vertex="1" parent="1">
                    <mxGeometry x="65" y="70" width="120" height="10" as="geometry"/>
                </mxCell>
                <mxCell id="26" value="&lt;span style=&quot;background-color: rgb(0, 0, 255);&quot;&gt;&lt;font color=&quot;#ffffff&quot;&gt;Módulo/Subdomínio&lt;/font&gt;&lt;/span&gt;" style="shape=umlFrame;whiteSpace=wrap;html=1;labelBackgroundColor=#FF66B3;strokeWidth=2;fontColor=#000000;fillColor=#0000FF;gradientColor=none;swimlaneFillColor=none;dashed=1;strokeColor=#0000FF;width=120;height=25;" vertex="1" parent="1">
                    <mxGeometry x="280" y="195" width="130" height="400" as="geometry"/>
                </mxCell>
                <mxCell id="27" value="emtity&lt;br&gt;" style="rounded=0;whiteSpace=wrap;html=1;dashed=1;labelBackgroundColor=#0000FF;strokeColor=#0000FF;strokeWidth=2;fontColor=#FFFFFF;fillColor=#0000FF;gradientColor=none;" vertex="1" parent="1">
                    <mxGeometry x="290" y="365" width="55" height="25" as="geometry"/>
                </mxCell>
                <mxCell id="28" value="types" style="rounded=0;whiteSpace=wrap;html=1;dashed=1;labelBackgroundColor=#0000FF;strokeColor=#0000FF;strokeWidth=2;fontColor=#FFFFFF;fillColor=#0000FF;gradientColor=none;" vertex="1" parent="1">
                    <mxGeometry x="290" y="392.5" width="55" height="25" as="geometry"/>
                </mxCell>
                <mxCell id="29" value="exception" style="rounded=0;whiteSpace=wrap;html=1;dashed=1;labelBackgroundColor=#0000FF;strokeColor=#0000FF;strokeWidth=2;fontColor=#FFFFFF;fillColor=#0000FF;gradientColor=none;" vertex="1" parent="1">
                    <mxGeometry x="350" y="365" width="55" height="25" as="geometry"/>
                </mxCell>
                <mxCell id="30" value="spec" style="rounded=0;whiteSpace=wrap;html=1;dashed=1;labelBackgroundColor=#0000FF;strokeColor=#0000FF;strokeWidth=2;fontColor=#FFFFFF;fillColor=#0000FF;gradientColor=none;" vertex="1" parent="1">
                    <mxGeometry x="350" y="392.5" width="55" height="25" as="geometry"/>
                </mxCell>
                <mxCell id="31" value="map" style="rounded=0;whiteSpace=wrap;html=1;dashed=1;labelBackgroundColor=#0000FF;strokeColor=#0000FF;strokeWidth=2;fontColor=#FFFFFF;fillColor=#0000FF;gradientColor=none;" vertex="1" parent="1">
                    <mxGeometry x="290" y="492.5" width="55" height="25" as="geometry"/>
                </mxCell>
            </root>
        </mxGraphModel>
    </diagram>
</mxfile>